<svg xmlns="http://www.w3.org/2000/svg" width="1280" height="800" viewBox="0 0 1280 800" role="img" aria-labelledby="wf-title wf-desc">
<title id="wf-title">web-02 EVV exception queue (Agency Web App)</title>
<desc id="wf-desc">Low-fidelity wireframe of the EVV exception queue for Lakemont North: filters, a bulk-resolve bar for three selected Low GPS accuracy exceptions, a table of nine open exceptions with server-computed details, and a time correction panel that adds a Manual clock-out with a required reason code and note for an auto-closed visit. Numbered callouts 1 to 9.</desc>
<rect x="0" y="0" width="1280" height="800" fill="#ffffff"/>
<g font-family="system-ui, -apple-system, 'Segoe UI', Roboto, Helvetica, Arial, sans-serif">
<!-- Top bar -->
<rect x="0" y="0" width="1280" height="56" rx="0" fill="#f5f5f5" stroke="none"/>
<line x1="0" y1="56" x2="1280" y2="56" stroke="#bdbdbd" stroke-width="1"/>
<text x="20" y="36" font-size="19" font-weight="800" fill="#212121" text-anchor="start">Tendwell</text>
<line x1="116" y1="18" x2="116" y2="40" stroke="#bdbdbd" stroke-width="1"/>
<text x="130" y="35" font-size="13" font-weight="400" fill="#424242" text-anchor="start">Harborview Home Care</text>
<rect x="420" y="12" width="320" height="32" rx="16" fill="#ffffff" stroke="#757575" stroke-width="1"/>
<circle cx="440" cy="27" r="6" fill="#ffffff" stroke="#616161" stroke-width="1.6"/>
<line x1="444" y1="31" x2="449" y2="36" stroke="#616161" stroke-width="1.6"/>
<text x="456" y="32" font-size="12" font-weight="400" fill="#757575" text-anchor="start">Search clients, caregivers, visits</text>
<text x="1214" y="33" font-size="13" font-weight="400" fill="#424242" text-anchor="end">Marcus Hale  -  Care Coordinator</text>
<circle cx="1240" cy="28" r="16" fill="#e0e0e0" stroke="#757575" stroke-width="1"/>
<text x="1240" y="33" font-size="12" font-weight="600" fill="#212121" text-anchor="middle">MH</text>
<!-- Left navigation -->
<rect x="0" y="56" width="180" height="744" rx="0" fill="#f5f5f5" stroke="none"/>
<line x1="180" y1="56" x2="180" y2="800" stroke="#bdbdbd" stroke-width="1"/>
<text x="24" y="92" font-size="13" font-weight="400" fill="#424242" text-anchor="start">Dashboard</text>
<text x="24" y="128" font-size="13" font-weight="400" fill="#424242" text-anchor="start">Schedule</text>
<text x="24" y="164" font-size="13" font-weight="400" fill="#424242" text-anchor="start">Open shifts</text>
<text x="24" y="200" font-size="13" font-weight="400" fill="#424242" text-anchor="start">Clients</text>
<text x="24" y="236" font-size="13" font-weight="400" fill="#424242" text-anchor="start">Caregivers</text>
<rect x="8" y="250" width="164" height="34" rx="6" fill="#e0e0e0" stroke="none"/>
<rect x="8" y="250" width="4" height="34" rx="2" fill="#212121" stroke="none"/>
<text x="24" y="272" font-size="13" font-weight="700" fill="#212121" text-anchor="start">EVV exceptions</text>
<rect x="142.4" y="257" width="23.6" height="18" rx="9.0" fill="#212121" stroke="#212121" stroke-width="1"/>
<text x="154.20000000000002" y="269.6" font-size="10" font-weight="600" fill="#ffffff" text-anchor="middle">9</text>
<text x="24" y="308" font-size="13" font-weight="400" fill="#424242" text-anchor="start">Medications</text>
<text x="24" y="344" font-size="13" font-weight="400" fill="#424242" text-anchor="start">Incidents</text>
<text x="24" y="380" font-size="13" font-weight="400" fill="#424242" text-anchor="start">Time off</text>
<text x="24" y="416" font-size="13" font-weight="400" fill="#424242" text-anchor="start">Payroll</text>
<text x="24" y="452" font-size="13" font-weight="400" fill="#424242" text-anchor="start">Billing</text>
<text x="24" y="488" font-size="13" font-weight="400" fill="#424242" text-anchor="start">Reports</text>
<text x="24" y="524" font-size="13" font-weight="400" fill="#424242" text-anchor="start">Audit log</text>
<text x="24" y="560" font-size="13" font-weight="400" fill="#424242" text-anchor="start">Settings</text>
<text x="196" y="94" font-size="20" font-weight="700" fill="#212121" text-anchor="start">EVV exceptions</text>
<text x="362" y="94" font-size="13" font-weight="400" fill="#616161" text-anchor="start">Open: 9  -  Lakemont North</text>
<rect x="196" y="110" width="114.64000000000001" height="28" rx="14" fill="#ffffff" stroke="#757575" stroke-width="1"/>
<text x="208" y="128" font-size="12" font-weight="400" fill="#212121" text-anchor="start">Status: Open</text>
<path d="M292.64 122.0 L296.64 126.0 L300.64 122.0" fill="none" stroke="#424242" stroke-width="1.8" stroke-linecap="round" stroke-linejoin="round"/>
<rect x="318.64" y="110" width="128.08" height="28" rx="14" fill="#ffffff" stroke="#757575" stroke-width="1"/>
<text x="330.64" y="128" font-size="12" font-weight="400" fill="#212121" text-anchor="start">Exception: All</text>
<path d="M428.72 122.0 L432.72 126.0 L436.72 122.0" fill="none" stroke="#424242" stroke-width="1.8" stroke-linecap="round" stroke-linejoin="round"/>
<rect x="454.72" y="110" width="175.12" height="28" rx="14" fill="#ffffff" stroke="#757575" stroke-width="1"/>
<text x="466.72" y="128" font-size="12" font-weight="400" fill="#212121" text-anchor="start">Dates: 09-13 to 09-15</text>
<path d="M611.84 122.0 L615.84 126.0 L619.84 122.0" fill="none" stroke="#424242" stroke-width="1.8" stroke-linecap="round" stroke-linejoin="round"/>
<rect x="637.84" y="110" width="141.52" height="28" rx="14" fill="#ffffff" stroke="#757575" stroke-width="1"/>
<text x="649.84" y="128" font-size="12" font-weight="400" fill="#212121" text-anchor="start">App version: All</text>
<path d="M761.36 122.0 L765.36 126.0 L769.36 122.0" fill="none" stroke="#424242" stroke-width="1.8" stroke-linecap="round" stroke-linejoin="round"/>
<circle cx="797.36" cy="124" r="12" fill="#212121" stroke="#ffffff" stroke-width="2.5"/>
<text x="797.36" y="128.5" font-size="13" font-weight="700" fill="#ffffff" text-anchor="middle">1</text>
<!-- Bulk action bar -->
<rect x="196" y="148" width="640" height="44" rx="8" fill="#e0e0e0" stroke="#424242" stroke-width="1.5"/>
<rect x="208" y="162" width="16" height="16" rx="3" fill="#212121" stroke="#212121" stroke-width="1"/>
<path d="M211.2 170.0 L214.4 173.36 L220.8 166.64" fill="none" stroke="#ffffff" stroke-width="2" stroke-linecap="round" stroke-linejoin="round"/>
<text x="232" y="175" font-size="13" font-weight="700" fill="#212121" text-anchor="start">3 selected: Low GPS accuracy</text>
<rect x="440" y="155" width="236" height="30" rx="6" fill="#ffffff" stroke="#757575" stroke-width="1"/>
<text x="452" y="174.32" font-size="12" font-weight="400" fill="#212121" text-anchor="start">Reason: Approximate location</text>
<path d="M653 167.5 L658 172.5 L663 167.5" fill="none" stroke="#424242" stroke-width="1.8" stroke-linecap="round" stroke-linejoin="round"/>
<rect x="684" y="155" width="140" height="30" rx="10" fill="#212121" stroke="#212121" stroke-width="1"/>
<text x="754.0" y="174.68" font-size="13" font-weight="600" fill="#ffffff" text-anchor="middle">Bulk resolve (3)</text>
<text x="196" y="210" font-size="11" font-weight="400" fill="#616161" text-anchor="start">Bulk resolve is limited to Low GPS accuracy and identity checks that failed because the vendor was unavailable.</text>
<circle cx="836" cy="150" r="12" fill="#212121" stroke="#ffffff" stroke-width="2.5"/>
<text x="836" y="154.5" font-size="13" font-weight="700" fill="#ffffff" text-anchor="middle">2</text>
<!-- Table -->
<rect x="196" y="220" width="640" height="28" rx="0" fill="#f5f5f5" stroke="none"/>
<text x="208" y="239" font-size="11" font-weight="700" fill="#424242" text-anchor="start"></text>
<text x="236" y="239" font-size="11" font-weight="700" fill="#424242" text-anchor="start">Visit</text>
<text x="340" y="239" font-size="11" font-weight="700" fill="#424242" text-anchor="start">Client and caregiver</text>
<text x="478" y="239" font-size="11" font-weight="700" fill="#424242" text-anchor="start">Exception</text>
<text x="618" y="239" font-size="11" font-weight="700" fill="#424242" text-anchor="start">Detail (computed by the server)</text>
<line x1="196" y1="302" x2="836" y2="302" stroke="#e0e0e0" stroke-width="1"/>
<rect x="208" y="267" width="16" height="16" rx="3" fill="#212121" stroke="#212121" stroke-width="1"/>
<path d="M211.2 275.0 L214.4 278.36 L220.8 271.64" fill="none" stroke="#ffffff" stroke-width="2" stroke-linecap="round" stroke-linejoin="round"/>
<text x="236" y="272" font-size="12" font-weight="600" fill="#212121" text-anchor="start">Mon</text>
<text x="236" y="289" font-size="12" font-weight="400" fill="#424242" text-anchor="start">09-14 11:58</text>
<text x="340" y="272" font-size="12" font-weight="600" fill="#212121" text-anchor="start">Frank A. (C-10289)</text>
<text x="340" y="289" font-size="12" font-weight="400" fill="#424242" text-anchor="start">Aisha Bello</text>
<text x="478" y="272" font-size="12" font-weight="700" fill="#212121" text-anchor="start">Low GPS accuracy</text>
<text x="478" y="289" font-size="9.5" font-weight="400" fill="#616161" text-anchor="start">LOW_GPS_ACCURACY</text>
<text x="618" y="272" font-size="11.5" font-weight="400" fill="#212121" text-anchor="start">Accuracy 3,400 m; distance 95 m</text>
<text x="618" y="289" font-size="11.5" font-weight="400" fill="#616161" text-anchor="start">not used. iOS, Precise Location off</text>
<line x1="196" y1="356" x2="836" y2="356" stroke="#e0e0e0" stroke-width="1"/>
<rect x="208" y="321" width="16" height="16" rx="3" fill="#212121" stroke="#212121" stroke-width="1"/>
<path d="M211.2 329.0 L214.4 332.36 L220.8 325.64" fill="none" stroke="#ffffff" stroke-width="2" stroke-linecap="round" stroke-linejoin="round"/>
<text x="236" y="326" font-size="12" font-weight="600" fill="#212121" text-anchor="start">Sun</text>
<text x="236" y="343" font-size="12" font-weight="400" fill="#424242" text-anchor="start">09-13 10:02</text>
<text x="340" y="326" font-size="12" font-weight="600" fill="#212121" text-anchor="start">Dorothy L. (C-10278)</text>
<text x="340" y="343" font-size="12" font-weight="400" fill="#424242" text-anchor="start">Kevin Tran</text>
<text x="478" y="326" font-size="12" font-weight="700" fill="#212121" text-anchor="start">Low GPS accuracy</text>
<text x="478" y="343" font-size="9.5" font-weight="400" fill="#616161" text-anchor="start">LOW_GPS_ACCURACY</text>
<text x="618" y="326" font-size="11.5" font-weight="400" fill="#212121" text-anchor="start">Accuracy 1,800 m</text>
<text x="618" y="343" font-size="11.5" font-weight="400" fill="#616161" text-anchor="start">iOS, Precise Location off</text>
<line x1="196" y1="410" x2="836" y2="410" stroke="#e0e0e0" stroke-width="1"/>
<rect x="208" y="375" width="16" height="16" rx="3" fill="#212121" stroke="#212121" stroke-width="1"/>
<path d="M211.2 383.0 L214.4 386.36 L220.8 379.64" fill="none" stroke="#ffffff" stroke-width="2" stroke-linecap="round" stroke-linejoin="round"/>
<text x="236" y="380" font-size="12" font-weight="600" fill="#212121" text-anchor="start">Sun</text>
<text x="236" y="397" font-size="12" font-weight="400" fill="#424242" text-anchor="start">09-13 14:31</text>
<text x="340" y="380" font-size="12" font-weight="600" fill="#212121" text-anchor="start">Arthur P. (C-10358)</text>
<text x="340" y="397" font-size="12" font-weight="400" fill="#424242" text-anchor="start">Kevin Tran</text>
<text x="478" y="380" font-size="12" font-weight="700" fill="#212121" text-anchor="start">Low GPS accuracy</text>
<text x="478" y="397" font-size="9.5" font-weight="400" fill="#616161" text-anchor="start">LOW_GPS_ACCURACY</text>
<text x="618" y="380" font-size="11.5" font-weight="400" fill="#212121" text-anchor="start">Accuracy 4,100 m</text>
<text x="618" y="397" font-size="11.5" font-weight="400" fill="#616161" text-anchor="start">iOS, Precise Location off</text>
<line x1="196" y1="464" x2="836" y2="464" stroke="#e0e0e0" stroke-width="1"/>
<rect x="208" y="429" width="16" height="16" rx="3" fill="#ffffff" stroke="#424242" stroke-width="1.5"/>
<text x="236" y="434" font-size="12" font-weight="600" fill="#212121" text-anchor="start">Mon</text>
<text x="236" y="451" font-size="12" font-weight="400" fill="#424242" text-anchor="start">09-14 09:03</text>
<text x="340" y="434" font-size="12" font-weight="600" fill="#212121" text-anchor="start">Walter B. (C-10262)</text>
<text x="340" y="451" font-size="12" font-weight="400" fill="#424242" text-anchor="start">Aisha Bello</text>
<text x="478" y="434" font-size="12" font-weight="700" fill="#212121" text-anchor="start">Location mismatch</text>
<text x="478" y="451" font-size="9.5" font-weight="400" fill="#616161" text-anchor="start">LOCATION_MISMATCH</text>
<text x="618" y="434" font-size="11.5" font-weight="400" fill="#212121" text-anchor="start">Distance 212 m; accuracy 18 m</text>
<text x="618" y="451" font-size="11.5" font-weight="400" fill="#616161" text-anchor="start">Geofence radius 150 m</text>
<rect x="197" y="465" width="638" height="52" rx="4" fill="#eeeeee" stroke="#212121" stroke-width="1.5"/>
<line x1="196" y1="518" x2="836" y2="518" stroke="#e0e0e0" stroke-width="1"/>
<rect x="208" y="483" width="16" height="16" rx="3" fill="#ffffff" stroke="#424242" stroke-width="1.5"/>
<text x="236" y="488" font-size="12" font-weight="600" fill="#212121" text-anchor="start">Mon</text>
<text x="236" y="505" font-size="12" font-weight="400" fill="#424242" text-anchor="start">09-14 07:02</text>
<text x="340" y="488" font-size="12" font-weight="600" fill="#212121" text-anchor="start">Lucia F. (C-10320)</text>
<text x="340" y="505" font-size="12" font-weight="400" fill="#424242" text-anchor="start">Maya Ortiz</text>
<text x="478" y="488" font-size="12" font-weight="700" fill="#212121" text-anchor="start">Auto-closed</text>
<text x="478" y="505" font-size="9.5" font-weight="400" fill="#616161" text-anchor="start">AUTO_CLOSED</text>
<text x="618" y="488" font-size="11.5" font-weight="400" fill="#212121" text-anchor="start">No clock-out; auto-closed 21:02</text>
<text x="618" y="505" font-size="11.5" font-weight="400" fill="#616161" text-anchor="start">Placeholder clock-out 11:00</text>
<line x1="196" y1="572" x2="836" y2="572" stroke="#e0e0e0" stroke-width="1"/>
<rect x="208" y="537" width="16" height="16" rx="3" fill="#ffffff" stroke="#424242" stroke-width="1.5"/>
<text x="236" y="542" font-size="12" font-weight="600" fill="#212121" text-anchor="start">Sun</text>
<text x="236" y="559" font-size="12" font-weight="400" fill="#424242" text-anchor="start">09-13 09:00</text>
<text x="340" y="542" font-size="12" font-weight="600" fill="#212121" text-anchor="start">Ruth K. (C-10301)</text>
<text x="340" y="559" font-size="12" font-weight="400" fill="#424242" text-anchor="start">Rosa Delgado</text>
<text x="478" y="542" font-size="12" font-weight="700" fill="#212121" text-anchor="start">Late offline sync</text>
<text x="478" y="559" font-size="9.5" font-weight="400" fill="#616161" text-anchor="start">LATE_OFFLINE_SYNC</text>
<text x="618" y="542" font-size="11.5" font-weight="400" fill="#212121" text-anchor="start">Received 25 h 29 min after capture</text>
<text x="618" y="559" font-size="11.5" font-weight="400" fill="#616161" text-anchor="start">Device clock within 1 min</text>
<line x1="196" y1="626" x2="836" y2="626" stroke="#e0e0e0" stroke-width="1"/>
<rect x="208" y="591" width="16" height="16" rx="3" fill="#ffffff" stroke="#424242" stroke-width="1.5"/>
<text x="236" y="596" font-size="12" font-weight="600" fill="#212121" text-anchor="start">Mon</text>
<text x="236" y="613" font-size="12" font-weight="400" fill="#424242" text-anchor="start">09-14 10:17</text>
<text x="340" y="596" font-size="12" font-weight="600" fill="#212121" text-anchor="start">Arthur P. (C-10358)</text>
<text x="340" y="613" font-size="12" font-weight="400" fill="#424242" text-anchor="start">Jordan Pike</text>
<text x="478" y="596" font-size="12" font-weight="700" fill="#212121" text-anchor="start">Late start</text>
<text x="478" y="613" font-size="9.5" font-weight="400" fill="#616161" text-anchor="start">LATE_START</text>
<text x="618" y="596" font-size="11.5" font-weight="400" fill="#212121" text-anchor="start">Clock-in 10:17, scheduled 10:00</text>
<text x="618" y="613" font-size="11.5" font-weight="400" fill="#616161" text-anchor="start">17 min late (tolerance 10)</text>
<line x1="196" y1="680" x2="836" y2="680" stroke="#e0e0e0" stroke-width="1"/>
<rect x="208" y="645" width="16" height="16" rx="3" fill="#ffffff" stroke="#424242" stroke-width="1.5"/>
<text x="236" y="650" font-size="12" font-weight="600" fill="#212121" text-anchor="start">Mon</text>
<text x="236" y="667" font-size="12" font-weight="400" fill="#424242" text-anchor="start">09-14 11:40</text>
<text x="340" y="650" font-size="12" font-weight="600" fill="#212121" text-anchor="start">Ruth K. (C-10301)</text>
<text x="340" y="667" font-size="12" font-weight="400" fill="#424242" text-anchor="start">Grace Whitaker</text>
<text x="478" y="650" font-size="12" font-weight="700" fill="#212121" text-anchor="start">Early end</text>
<text x="478" y="667" font-size="9.5" font-weight="400" fill="#616161" text-anchor="start">EARLY_END</text>
<text x="618" y="650" font-size="11.5" font-weight="400" fill="#212121" text-anchor="start">Clock-out 11:40, scheduled 12:00</text>
<text x="618" y="667" font-size="11.5" font-weight="400" fill="#616161" text-anchor="start">20 min early (tolerance 10)</text>
<line x1="196" y1="734" x2="836" y2="734" stroke="#e0e0e0" stroke-width="1"/>
<rect x="208" y="699" width="16" height="16" rx="3" fill="#ffffff" stroke="#424242" stroke-width="1.5"/>
<text x="236" y="704" font-size="12" font-weight="600" fill="#212121" text-anchor="start">Sun</text>
<text x="236" y="721" font-size="12" font-weight="400" fill="#424242" text-anchor="start">09-13 07:58</text>
<text x="340" y="704" font-size="12" font-weight="600" fill="#212121" text-anchor="start">Walter B. (C-10262)</text>
<text x="340" y="721" font-size="12" font-weight="400" fill="#424242" text-anchor="start">Grace Whitaker</text>
<text x="478" y="704" font-size="12" font-weight="700" fill="#212121" text-anchor="start">Identity check failed</text>
<text x="478" y="721" font-size="9.5" font-weight="400" fill="#616161" text-anchor="start">IDENTITY_CHECK_FAILED</text>
<text x="618" y="704" font-size="11.5" font-weight="400" fill="#212121" text-anchor="start">Vendor unavailable 07:55-08:20</text>
<text x="618" y="721" font-size="11.5" font-weight="400" fill="#616161" text-anchor="start">Punch accepted</text>
<circle cx="216" cy="234" r="12" fill="#212121" stroke="#ffffff" stroke-width="2.5"/>
<text x="216" y="238.5" font-size="13" font-weight="700" fill="#ffffff" text-anchor="middle">3</text>
<circle cx="832" cy="414" r="12" fill="#212121" stroke="#ffffff" stroke-width="2.5"/>
<text x="832" y="418.5" font-size="13" font-weight="700" fill="#ffffff" text-anchor="middle">4</text>
<circle cx="196" cy="466" r="12" fill="#212121" stroke="#ffffff" stroke-width="2.5"/>
<text x="196" y="470.5" font-size="13" font-weight="700" fill="#ffffff" text-anchor="middle">5</text>
<text x="196" y="752" font-size="12" font-weight="400" fill="#616161" text-anchor="start">Showing 9 of 9</text>
<rect x="744" y="734" width="92" height="30" rx="10" fill="#e0e0e0" stroke="#bdbdbd" stroke-width="1"/>
<text x="790.0" y="753.32" font-size="12" font-weight="600" fill="#757575" text-anchor="middle">Next</text>
<!-- Time correction panel -->
<rect x="852" y="56" width="428" height="744" rx="0" fill="#ffffff" stroke="#757575" stroke-width="1"/>
<text x="872" y="92" font-size="18" font-weight="700" fill="#212121" text-anchor="start">Time correction</text>
<rect x="1226" y="68" width="44" height="44" rx="6" fill="#ffffff" stroke="none"/>
<line x1="1241" y1="83" x2="1255" y2="97" stroke="#212121" stroke-width="2"/>
<line x1="1255" y1="83" x2="1241" y2="97" stroke="#212121" stroke-width="2"/>
<text x="872" y="122" font-size="13" font-weight="700" fill="#212121" text-anchor="start">Mon 2026-09-14, 07:00-11:00</text>
<text x="872" y="142" font-size="12" font-weight="400" fill="#424242" text-anchor="start">Lucia Ferreira (C-10320)  -  Maya Ortiz (E-2041)</text>
<rect x="872" y="152" width="85.76" height="22" rx="11.0" fill="#212121" stroke="#212121" stroke-width="1"/>
<text x="914.88" y="166.96" font-size="11" font-weight="600" fill="#ffffff" text-anchor="middle">Auto-closed</text>
<text x="872" y="202" font-size="13" font-weight="700" fill="#212121" text-anchor="start">Punch history (append-only)</text>
<rect x="872" y="210" width="388" height="26" rx="0" fill="#f5f5f5" stroke="none"/>
<text x="882" y="227" font-size="11" font-weight="700" fill="#424242" text-anchor="start">Type</text>
<text x="928" y="227" font-size="11" font-weight="700" fill="#424242" text-anchor="start">Time</text>
<text x="984" y="227" font-size="11" font-weight="700" fill="#424242" text-anchor="start">Source</text>
<text x="1154" y="227" font-size="11" font-weight="700" fill="#424242" text-anchor="start">Status</text>
<line x1="872" y1="268" x2="1260" y2="268" stroke="#e0e0e0" stroke-width="1"/>
<text x="882" y="257" font-size="12" font-weight="600" fill="#212121" text-anchor="start">In</text>
<text x="928" y="257" font-size="12" font-weight="400" fill="#212121" text-anchor="start">07:02</text>
<text x="984" y="257" font-size="12" font-weight="400" fill="#424242" text-anchor="start">Mobile, 6 m acc., 20 m</text>
<text x="1154" y="257" font-size="12" font-weight="700" fill="#212121" text-anchor="start">Effective</text>
<line x1="872" y1="300" x2="1260" y2="300" stroke="#e0e0e0" stroke-width="1"/>
<text x="882" y="289" font-size="12" font-weight="600" fill="#212121" text-anchor="start">Out</text>
<text x="928" y="289" font-size="12" font-weight="400" fill="#212121" text-anchor="start">11:00</text>
<text x="984" y="289" font-size="12" font-weight="400" fill="#424242" text-anchor="start">System placeholder (21:02)</text>
<text x="1154" y="289" font-size="12" font-weight="400" fill="#616161" text-anchor="start">Superseded</text>
<line x1="1154" y1="285.04" x2="1221.2" y2="285.04" stroke="#616161" stroke-width="1.2"/>
<rect x="873" y="302" width="386" height="28" rx="4" fill="#ffffff" stroke="#212121" stroke-width="1.4" stroke-dasharray="4 3"/>
<line x1="872" y1="332" x2="1260" y2="332" stroke="#e0e0e0" stroke-width="1"/>
<text x="882" y="321" font-size="12" font-weight="600" fill="#212121" text-anchor="start">Out</text>
<text x="928" y="321" font-size="12" font-weight="400" fill="#212121" text-anchor="start">11:05</text>
<text x="984" y="321" font-size="12" font-weight="400" fill="#424242" text-anchor="start">Manual, this correction</text>
<text x="1154" y="321" font-size="12" font-weight="700" fill="#212121" text-anchor="start">Effective</text>
<circle cx="1266" cy="212" r="12" fill="#212121" stroke="#ffffff" stroke-width="2.5"/>
<text x="1266" y="216.5" font-size="13" font-weight="700" fill="#ffffff" text-anchor="middle">6</text>
<text x="872" y="358" font-size="12" font-weight="700" fill="#212121" text-anchor="start">Corrected clock-out</text>
<rect x="872" y="366" width="150" height="40" rx="6" fill="#ffffff" stroke="#212121" stroke-width="2"/>
<text x="886" y="391" font-size="14" font-weight="400" fill="#212121" text-anchor="start">11:05</text>
<rect x="1032" y="366" width="150" height="40" rx="6" fill="#ffffff" stroke="#757575" stroke-width="1"/>
<text x="1046" y="391" font-size="14" font-weight="400" fill="#212121" text-anchor="start">2026-09-14</text>
<text x="872" y="428" font-size="12" font-weight="700" fill="#212121" text-anchor="start">Reason code (required)</text>
<rect x="872" y="436" width="388" height="40" rx="6" fill="#ffffff" stroke="#212121" stroke-width="2"/>
<text x="884" y="460.68" font-size="13" font-weight="400" fill="#212121" text-anchor="start">Caregiver forgot to clock out</text>
<path d="M1237 453.5 L1242 458.5 L1247 453.5" fill="none" stroke="#424242" stroke-width="1.8" stroke-linecap="round" stroke-linejoin="round"/>
<text x="872" y="498" font-size="12" font-weight="700" fill="#212121" text-anchor="start">Note (required)</text>
<rect x="872" y="506" width="388" height="62" rx="6" fill="#ffffff" stroke="#212121" stroke-width="2"/>
<text x="884" y="528" font-size="12" font-weight="400" fill="#212121" text-anchor="start">Called Maya 2026-09-15 08:10. She left at about</text>
<text x="884" y="546" font-size="12" font-weight="400" fill="#212121" text-anchor="start">11:05 after the visit note; client&#x27;s son confirmed.</text>
<circle cx="1266" cy="438" r="12" fill="#212121" stroke="#ffffff" stroke-width="2.5"/>
<text x="1266" y="442.5" font-size="13" font-weight="700" fill="#ffffff" text-anchor="middle">7</text>
<rect x="872" y="580" width="388" height="48" rx="6" fill="#f5f5f5" stroke="#bdbdbd" stroke-width="1"/>
<text x="884" y="600" font-size="11.5" font-weight="400" fill="#212121" text-anchor="start">Saving adds a Manual punch that supersedes the placeholder.</text>
<text x="884" y="618" font-size="11.5" font-weight="400" fill="#212121" text-anchor="start">The original punches stay in the visit history.</text>
<rect x="872" y="640" width="388" height="74" rx="6" fill="#ffffff" stroke="#424242" stroke-width="1.5"/>
<text x="884" y="662" font-size="12" font-weight="700" fill="#212121" text-anchor="start">After saving</text>
<text x="884" y="682" font-size="11.5" font-weight="400" fill="#212121" text-anchor="start">AUTO_CLOSED resolved. No other open exceptions: Verified.</text>
<text x="884" y="700" font-size="11.5" font-weight="400" fill="#212121" text-anchor="start">Visit 4 h 03 min: pay 4.05 h, bill 16 units (T1019).</text>
<circle cx="1266" cy="642" r="12" fill="#212121" stroke="#ffffff" stroke-width="2.5"/>
<text x="1266" y="646.5" font-size="13" font-weight="700" fill="#ffffff" text-anchor="middle">8</text>
<rect x="1004" y="734" width="100" height="40" rx="10" fill="#ffffff" stroke="#212121" stroke-width="1.5"/>
<text x="1054.0" y="759.04" font-size="14" font-weight="600" fill="#212121" text-anchor="middle">Cancel</text>
<rect x="1114" y="734" width="146" height="40" rx="10" fill="#212121" stroke="#212121" stroke-width="1"/>
<text x="1187.0" y="759.04" font-size="14" font-weight="600" fill="#ffffff" text-anchor="middle">Save correction</text>
<circle cx="1266" cy="736" r="12" fill="#212121" stroke="#ffffff" stroke-width="2.5"/>
<text x="1266" y="740.5" font-size="13" font-weight="700" fill="#ffffff" text-anchor="middle">9</text>
</g>
</svg>
